<?xml version="1.0" encoding="UTF-8"?><!DOCTYPE svg PUBLIC "-//W3C//DTD SVG 1.1//EN" "http://www.w3.org/Graphics/SVG/1.1/DTD/svg11.dtd"><svg xmlns="http://www.w3.org/2000/svg"><symbol id="NotFound" viewBox="0 0 474 584"><g transform="translate(7 7)" fill="none" fill-rule="evenodd"><rect stroke="#000" stroke-width="7" width="460" height="570" rx="7"/><path d="M42 137h20v-6H39v6h3zm0 40h20v-6H39v6h3zm0 40h20v-6H39v6h3zm0 40h20v-6H39v6h3zm0 40h20v-6H39v6h3zm0 40h20v-6H39v6h3zm0 40h20v-6H39v6h3zm0 40h20v-6H39v6h3zm0 40h20v-6H39v6h3zm0 40h20v-6H39v6h3zm0 40h20v-6H39v6h3z" fill="#CECECF"/><path d="M72 137h343.506v-6H69v6h3zm0 40h298.507v-6H69v6h3zm0 40h315.558v-6H69v6h3zm0 40h190.503v-6H69v6h3zm0 40h273.502v-6H69v6h3zm0 40h300.502v-6H69v6h3zm0 40h99.686v-6H69v6h3zm0 40h223.502v-6H69v6h3zm0 40h147.5v-6H69v6h3zm0 40h278.516v-6H69v6h3zm0 40h349.536v-6H69v6h3zm107.88-433.764h-.68a9.86 9.86 0 0 1-.985-.05l.663-.307c-.39-1.38-.46-1.55-1.054-2.858l-1.292.39c.544 1.157.697 1.667 1.003 3.078l.357-.152v1.7c.578-.068 1.14-.102 1.99-.102h6.05c.834 0 1.412.034 1.973.102v-1.887c-.46.053-.68.07-1.48.087l.68-10.49c.035-.713.154-2.04.205-2.447-.476.033-.8.05-1.717.05h-4.964c-.818 0-1.48-.034-1.923-.102V92.1c.442-.05.918-.084 1.717-.084h.714l-.477 4.267h-.17c-.12 0-.29 0-.543-.017-.205-.017-.358-.017-.477-.034-.323 0-.374 0-.595-.05v1.87c.323-.07.697-.086 1.547-.086h.05l-.594 5.27zm2.602-6.953l.476-4.267h2.346l-.272 4.267h-2.55zm-.204 1.683h2.652l-.34 5.27h-2.907l.595-5.27zm-5.525-6.477c-.102.32-.102.32-.714 1.477-.427.8-.427.8-.68 1.207-.58.05-.954.085-1.124.085a30.71 30.71 0 0 0 1.734-3.537c.154-.357.205-.442.324-.646l-1.717-.544c-.238.884-.68 1.99-1.326 3.315-.593 1.24-.644 1.325-1.103 1.512l.29 1.48a53.5 53.5 0 0 1 2.005-.17c-.152.22-.152.22-.288.44-.306.477-.323.51-.782 1.106-.578.765-.68.867-1.173 1.037l.356 1.598c.272-.067.323-.067.697-.12.086 0 .256-.032.51-.066.324-.034.68-.068 1.072-.12 1.275-.135 1.547-.17 2.193-.288.272-.034.272-.034.425-.068.085.272.12.408.22.8l1.378-.63c-.543-1.768-.543-1.768-1.36-3.52l-1.342.562c.323.63.425.85.63 1.343-.41.068-.698.12-1.19.17-.783.102-.783.102-1.14.153.187-.255.187-.255.9-1.258a82.062 82.062 0 0 0 1.327-2.057c1.173-2.073 1.224-2.16 1.445-2.447l-1.564-.816zm-3.825 8.94c-.17 1.836-.323 2.533-.85 3.893l1.513.595c.546-1.837.63-2.245.835-4.166l-1.496-.323zm1.785.306c.187 1.088.306 2.363.306 3.468v.442l1.562-.22c-.068-1.565-.153-2.347-.425-3.91l-1.445.22zm19.84-9.146c-.664 1.276-1.055 1.94-1.497 2.602-.153.017-.68.05-1.58.102.9-1.326 1.342-2.09 2.056-3.502.17-.357.22-.442.357-.646l-1.685-.646c-.34.97-.39 1.105-.8 1.887-.424.867-1.138 2.125-1.36 2.43-.203.29-.44.477-.747.58l.322 1.478c.612-.068 1.99-.17 2.397-.187-1.446 2.04-1.786 2.397-2.534 2.618l.39 1.615c.34-.066.477-.1.817-.134 3.417-.408 3.417-.408 4.386-.56.1.322.118.39.237.798l1.513-.63c-.612-1.818-.884-2.413-1.564-3.535l-1.394.577c.374.68.51.918.68 1.343-.408.067-.714.1-1.292.17-.68.084-.782.084-1.24.152.135-.17.186-.255.288-.357 1.003-1.258 1.003-1.258 1.326-1.717.29-.39 1.58-2.312 1.7-2.482.493-.816.493-.816.8-1.173l-1.582-.782zm4.93.613c.135-.357.27-.765.475-1.428.153-.476.153-.476.238-.697l-1.92-.34c-.086.56-.29 1.292-.613 2.142a11.005 11.005 0 0 1-2.006 3.383c.63.46 1.02.85 1.36 1.377.8-1.003 1.088-1.428 1.7-2.686h3.944c-.015 3.536-.22 6.545-.542 8.194-.22 1.054-.408 1.258-1.19 1.258-.578 0-1.343-.068-2.21-.22.29.73.39 1.155.476 1.903a19.7 19.7 0 0 0 1.58.066c1.123 0 1.786-.136 2.177-.442.56-.442.885-1.377 1.14-3.332.187-1.394.374-4.37.39-6.29.018-2.414.018-2.414.086-2.958-.374.05-.68.068-1.394.068h-3.688zm-9.453 8.415c-.153 1.598-.34 2.38-.884 3.774l1.564.646c.612-1.717.646-1.836.918-4.2l-1.598-.22zm4.2.05c.594 1.378.764 1.854 1.24 3.605l1.547-.612c-.425-1.46-.612-2.004-1.31-3.534l-1.478.544zm-2.11.17c.29 2.194.29 2.194.34 3.91l1.65-.237c0-1.07-.204-2.77-.46-3.925l-1.53.255zm9.01-.764c-.78-1.972-.866-2.125-1.597-3.383l-.527-.882-1.496.816c.9 1.445 1.258 2.21 1.99 4.3l1.63-.85zm14.723-8.517h-1.496c-.748 0-1.292-.034-1.768-.102v1.802c.406-.05.406-.05 1.817-.085h1.445v1.615h-1.75c-.817 0-1.463-.034-1.888-.102v1.802a19.89 19.89 0 0 1 1.87-.085h4.03v1.445h-3.843c-.883 0-1.41-.017-1.852-.085v1.853c.543-.068 1.19-.102 1.818-.102h3.876v3.62c0 .34-.12.443-.51.443-.8 0-1.547-.05-2.023-.12.255.545.374 1.055.41 1.786 1.12.017 1.12.017 1.307.017.884 0 1.445-.087 1.887-.274.51-.238.68-.646.68-1.632v-3.842c.714 0 1.156.017 1.65.102V97.76c-.41.07-.834.086-1.65.086V96.4h.29c.747 0 1.206.018 1.665.086v-1.802c-.426.068-1.038.102-1.854.102h-2.346V93.17h1.87c.766 0 1.276.018 1.752.086v-1.802c-.476.068-1.037.102-1.768.102h-1.853v-.46c0-.526.036-.883.087-1.274h-1.955c.07.425.103.8.103 1.275v.46zm-8.993 10.71c0 .9-.034 1.496-.102 2.023h1.785v-1.428h1.547v.85h1.734c-.034-.425-.05-.8-.05-1.7v-9.724c0-.986 0-1.292.05-1.683-.408.034-.714.05-1.48.05h-2.056c-.8 0-1.122-.016-1.496-.05.05.51.068.952.068 1.717v9.945zm1.7-9.996h1.53v3.555h-1.53V92.27zm0 5.12h1.53v3.824h-1.53V97.39zm8.007 4.93c-.663-.953-1.24-1.616-2.227-2.6l-1.36.916c.952.9 1.462 1.547 2.193 2.788l1.394-1.105zm21.13-6.733c-.356.05-.798.068-1.614.068h-3.196V91.93h3.706c-.068 1.276-.153 1.43-.697 1.43-.374 0-1.054-.086-1.734-.205.204.544.272.85.374 1.598a13.98 13.98 0 0 0 1.547.085c1.853 0 2.09-.357 2.295-3.485.017-.408.034-.646.085-1.105-.29.05-.816.085-1.58.085H232.7c-.63 0-1.105-.017-1.598-.085.05.46.085 1.122.085 1.734v11.373c0 .884-.017 1.31-.12 2.023h1.94c-.07-.56-.103-1.003-.12-1.598.357.476.646.9.952 1.48.865-.75 1.392-1.327 2.02-2.194.75.884 1.327 1.428 2.313 2.21.29-.663.46-.986.986-1.802-1.14-.697-1.633-1.122-2.347-1.972.578-1.14 1.088-2.652 1.445-4.216.084-.425.118-.527.203-.748l-.764-.952zm-4.538 1.683c.542 2.21.865 3.042 1.613 4.3-.527.765-1.105 1.36-1.887 1.972V97.27h.272zm3.4 0c-.257 1.223-.478 1.903-.835 2.702-.46-.85-.748-1.615-1.02-2.703h1.853zm-10.236-3.06h-1.53c-.68 0-1.037-.018-1.48-.086v1.802a9.19 9.19 0 0 1 1.225-.068c.22.68.34 1.19.44 1.887-.61 0-.85-.017-1.257-.085v1.802c.476-.05.833-.068 1.48-.068h1.104v1.36h-1.48c-.645 0-.985-.017-1.41-.068v1.785c.476-.05.765-.066 1.41-.066h1.48v1.24c0 .664-.034 1.174-.102 1.735h1.87a18.556 18.556 0 0 1-.085-1.735v-1.24h1.293c.63 0 .952.016 1.41.067v-1.784c-.424.05-.764.068-1.41.068h-1.292v-1.36h.886c.663 0 1.02.017 1.48.068V97.66c-.34.068-.664.085-1.072.085.306-.816.323-.867.56-1.887.358 0 .63.034.953.068v-1.802c-.46.068-.765.085-1.48.085h-1.325V92.9h1.004c.595 0 .97.017 1.41.068V91.2c-.407.05-.73.068-1.41.068h-1.003v-.306c0-.544.018-.9.07-1.292h-1.837c.068.22.102.8.102 1.292v.306h-1.156c-.68 0-1.004-.017-1.412-.068v1.768c.46-.05.8-.068 1.41-.068h1.157v1.31zm1.87 1.648c-.17.85-.29 1.31-.51 1.887h-1.105c-.12-.765-.188-1.07-.426-1.887h2.04zm20.672-3.298v-1.105c0-.816.034-1.258.102-1.785h-2.143c.085.56.102.97.102 1.853v1.037h-4.472a13.1 13.1 0 0 1-1.53-.068c.05.544.068.85.068 1.48v5.2c0 .715-.017 1.14-.085 1.7h2.007v-1.02h4.012v3.452c0 .952-.035 1.48-.12 2.108h2.176c-.085-.595-.12-1.088-.12-2.108v-3.45h4.217v1.02h2.006c-.07-.494-.086-.936-.086-1.7v-5.186c0-.663.017-1.02.068-1.496-.442.05-.8.068-1.547.068h-4.657zm0 1.802h4.216v3.69h-4.216v-3.69zm-1.938 3.69h-4.013v-3.69h4.012v3.69zm23.748-4.03c.884 0 1.462.034 2.074.102v-1.92c-.63.084-1.224.118-2.142.118h-4.267a16.772 16.772 0 0 0-1.14-2.635l-2.004.595c.39.714.68 1.326.952 2.04h-4.726c-.884 0-1.48-.034-2.125-.12v1.922a18.53 18.53 0 0 1 2.073-.102h.8c.51 1.564.883 2.448 1.53 3.57.61 1.054.85 1.377 2.022 2.72-1.7 1.41-3.655 2.33-6.698 3.162a6.79 6.79 0 0 1 1.088 1.82c1.615-.545 2.6-.936 3.62-1.463 1.242-.644 2.432-1.426 3.35-2.21 1.82 1.583 3.96 2.72 6.834 3.674.373-.918.61-1.326 1.172-1.99-2.737-.61-4.76-1.53-6.647-2.99a15.363 15.363 0 0 0 2.007-2.874c.647-1.19.766-1.463 1.327-3.418h.9zm-2.907 0c-.39 1.326-.646 1.972-1.173 2.89-.442.8-.952 1.496-1.547 2.142a11.9 11.9 0 0 1-1.614-2.125c-.612-1.005-.9-1.65-1.292-2.91h5.627zm15.266 3.706c-.12 0-.255-.017-.476-.068v1.615c.137-.05.324-.085.46-.085h.374v2.21c0 .544-.034 1.19-.085 1.632.39-.05.933-.068 1.53-.068h1.103c.56 0 .85.017 1.173.068v-1.785c-.408.068-.748.085-1.326.085h-.934V99.19h2.176c.05 0 .29.017.39.034.035 0 .07.017.12.017v-1.58a2.4 2.4 0 0 1-.493.07h-1.073c-.238-.75-.272-.85-.493-1.36l-1.496.424c.27.46.356.663.458.935h-1.41zM287.9 96.3v6.936c0 .323-.086.39-.58.39-.543 0-1.053-.05-1.716-.17.272.58.374 1.055.39 1.735.358.036.92.053 1.36.053.783 0 1.327-.068 1.582-.187.408-.22.595-.646.595-1.394v-11.51c0-.917.02-1.512.07-2.005-.39.05-.92.068-1.853.068h-5.644c-.748 0-1.19-.017-1.564-.068.033.46.05.867.05 1.683v11.56c0 .95-.034 1.512-.085 2.022h1.785c-.07-.51-.086-.97-.086-2.023V96.3h5.695zm-5.203-3.757c.374.748.527 1.173.765 2.023l1.36-.442c-.204-.782-.408-1.292-.765-2.04l-1.36.46zm3.774 2.26c.29-.577.308-.61.937-2.226l-1.48-.493c-.22.986-.51 1.82-.95 2.72h-2.772v-2.958h5.695v2.958h-1.43zm-7.852-3.212c-.39.988-.544 1.26-1.343 2.654-.527.034-.9.068-1.156.085.764-1.19 1.31-2.16 1.92-3.435.17-.357.22-.425.34-.63l-1.58-.645c-.29.934-.698 1.87-1.463 3.297-.663 1.224-.748 1.326-1.24 1.496l.288 1.48c.442-.035 1.31-.12 1.734-.154.135 0 .135 0 .237-.02-.612.987-.612.987-1.054 1.565-.578.765-.68.85-1.156 1.02l.34 1.615c.255-.067.306-.084.68-.118.068-.017.238-.034.476-.068.323-.034.663-.085 1.037-.12a34.91 34.91 0 0 0 2.362-.322l.136.714 1.31-.527c-.103-.63-.103-.63-.46-1.923-.29-.97-.29-.97-.578-1.615l-1.31.493c.29.714.375.97.51 1.394-.373.067-.577.084-1.053.152-.578.068-.68.085-1.105.153.187-.255.187-.272.39-.544.58-.815.58-.815.8-1.155.952-1.462 1.156-1.802 1.683-2.77.408-.766.51-.92.765-1.26l-1.513-.815zm-3.808 8.84c-.103 1.72-.29 2.654-.766 3.997l1.445.56c.406-1.376.576-2.294.763-4.334l-1.445-.22zm1.7.308c.22 1.088.373 2.516.373 3.468v.527l1.428-.238c-.05-1.36-.185-2.482-.457-3.978l-1.343.22zm1.784-.306c.39 1.055.56 1.667.952 3.384l1.275-.51c-.304-1.326-.525-2.057-1-3.298l-1.225.425zM154.747 42.175h2.31c.002-.317.033-.637.095-.96a2.94 2.94 0 0 1 .315-.884c.147-.266.342-.48.586-.645.244-.165.54-.247.893-.247.52 0 .95.16 1.283.485.332.323.5.773.5 1.35 0 .364-.083.687-.247.97a3.3 3.3 0 0 1-.612.765 5.518 5.518 0 0 1-.807.62c-.294.188-.572.372-.832.553-.51.35-.994.698-1.453 1.038-.46.34-.858.71-1.198 1.114-.34.403-.61.86-.81 1.37-.197.51-.296 1.11-.296 1.8h8.738V47.43h-5.627a5.317 5.317 0 0 1 1.02-1.07c.385-.308.78-.594 1.19-.86a85.26 85.26 0 0 0 1.215-.808 6.436 6.436 0 0 0 1.08-.91c.318-.334.573-.716.766-1.147.192-.43.288-.946.288-1.547 0-.578-.11-1.1-.33-1.564a3.492 3.492 0 0 0-.893-1.173 3.994 3.994 0 0 0-1.3-.73 4.73 4.73 0 0 0-1.554-.256c-.715 0-1.346.122-1.896.365a3.71 3.71 0 0 0-1.37 1.02 4.446 4.446 0 0 0-.816 1.53 5.766 5.766 0 0 0-.238 1.895zm9.18 1.326c0 1.19.116 2.185.348 2.984.232.8.547 1.437.944 1.913.394.476.856.816 1.383 1.02a4.596 4.596 0 0 0 1.674.306c.6 0 1.165-.102 1.692-.306a3.443 3.443 0 0 0 1.393-1.02c.402-.476.72-1.113.952-1.913.232-.8.35-1.793.35-2.983 0-1.155-.118-2.127-.35-2.915-.232-.787-.55-1.42-.952-1.895a3.425 3.425 0 0 0-1.394-1.02 4.62 4.62 0 0 0-1.69-.307 4.6 4.6 0 0 0-1.677.306c-.527.202-.99.542-1.386 1.02-.396.474-.71 1.106-.943 1.894-.232.787-.35 1.76-.35 2.915zm2.413 0c0-.203.003-.45.01-.74.005-.29.025-.585.06-.89.032-.307.09-.61.168-.91.08-.3.19-.57.332-.808a1.78 1.78 0 0 1 .544-.577c.22-.147.496-.22.825-.22.326 0 .604.073.83.22.227.147.414.34.56.578.15.24.26.508.333.81a8.246 8.246 0 0 1 .238 1.8 25.106 25.106 0 0 1-.026 1.973 6.6 6.6 0 0 1-.21 1.394c-.12.447-.313.83-.58 1.147-.265.317-.65.476-1.146.476-.49 0-.863-.16-1.124-.476-.26-.317-.45-.7-.57-1.148a6.635 6.635 0 0 1-.212-1.394 27.847 27.847 0 0 1-.034-1.233zm13.345 6V37.6h-1.92c-.07.454-.21.834-.425 1.14-.216.306-.48.552-.79.74a3.17 3.17 0 0 1-1.055.39c-.39.074-.796.105-1.215.094v1.82h2.992V49.5h2.413zm3.417-7.325h2.313c0-.317.03-.637.093-.96.062-.324.167-.618.314-.884.148-.266.343-.48.587-.645.242-.165.54-.247.89-.247.52 0 .95.16 1.284.485.334.323.5.773.5 1.35 0 .364-.08.687-.245.97a3.3 3.3 0 0 1-.613.765 5.518 5.518 0 0 1-.808.62c-.295.188-.573.372-.833.553-.51.35-.995.698-1.454 1.038-.46.34-.858.71-1.198 1.114-.34.403-.61.86-.808 1.37-.198.51-.297 1.11-.297 1.8h8.738V47.43h-5.627a5.383 5.383 0 0 1 1.023-1.07c.385-.308.78-.594 1.19-.86a85.26 85.26 0 0 0 1.215-.808 6.517 6.517 0 0 0 1.08-.91 4.04 4.04 0 0 0 .764-1.147c.194-.43.29-.946.29-1.547 0-.578-.11-1.1-.33-1.564a3.492 3.492 0 0 0-.893-1.173 4.015 4.015 0 0 0-1.3-.73 4.745 4.745 0 0 0-1.557-.256c-.714 0-1.345.122-1.895.365a3.717 3.717 0 0 0-1.37 1.02c-.36.436-.633.946-.815 1.53a5.766 5.766 0 0 0-.238 1.895zm23.85 3.11v-2.753h2.79c.73 0 1.19.018 1.7.07V40.8c-.51.067-.97.084-1.752.084h-2.737v-2.21h3.47c.763 0 1.206.017 1.732.085v-1.854c-.51.068-.935.085-1.733.085h-7.957c.442-.952.697-1.48.75-1.58L201.19 35c-.05.34-.17.697-.407 1.24-.697 1.667-1.58 2.79-3.315 4.268.578.56.764.782 1.258 1.513 1.088-.984 1.92-1.97 2.804-3.347h3.553v2.21h-3.706c-.46 0-.833-.017-1.19-.05.034.356.05.61.05.985v3.468h-.865c-.766 0-1.31-.034-1.854-.102v1.938c.56-.067 1.106-.1 1.853-.1h5.714v2.09c0 .9-.034 1.36-.1 1.853h2.072c-.085-.493-.102-.952-.102-1.82V47.02h3.945c.73 0 1.325.033 1.85.1v-1.937a13.86 13.86 0 0 1-1.85.102h-3.946zm-1.87 0h-3.058v-2.753h3.06v2.755zm20.894 4.217V37.6h-1.92c-.07.454-.21.834-.425 1.14a2.59 2.59 0 0 1-.79.74 3.158 3.158 0 0 1-1.053.39c-.39.074-.796.105-1.215.094v1.82h2.993V49.5h2.413zm3.145-6c0 1.19.12 2.184.35 2.983.233.8.548 1.437.945 1.913.396.476.858.816 1.385 1.02a4.587 4.587 0 0 0 1.673.306c.6 0 1.165-.102 1.692-.306a3.443 3.443 0 0 0 1.394-1.02c.4-.476.72-1.113.95-1.913.232-.8.35-1.793.35-2.983 0-1.156-.118-2.128-.35-2.916-.23-.787-.55-1.42-.95-1.895-.404-.476-.87-.816-1.396-1.02a4.62 4.62 0 0 0-1.69-.306 4.6 4.6 0 0 0-1.676.306c-.528.203-.99.543-1.387 1.02-.395.475-.71 1.107-.942 1.895-.232.787-.35 1.76-.35 2.915zm2.417 0c0-.204.002-.45.008-.74s.025-.586.06-.892c.033-.306.09-.61.17-.91.08-.3.19-.57.33-.807.143-.237.324-.43.545-.577.22-.147.495-.22.823-.22.33 0 .607.073.833.22a1.8 1.8 0 0 1 .56.578c.15.24.26.508.333.81a8.435 8.435 0 0 1 .237 1.8 25.106 25.106 0 0 1-.026 1.973c-.02.48-.093.946-.21 1.394-.12.448-.313.83-.58 1.148-.265.317-.648.476-1.147.476-.487 0-.86-.16-1.122-.476-.26-.317-.45-.7-.567-1.148a6.57 6.57 0 0 1-.213-1.393 26.388 26.388 0 0 1-.034-1.233zm24.615 2.074l.002 2.94c0 .375-.12.46-.63.46-.713 0-1.63-.068-2.498-.204.288.697.39 1.088.493 1.904.9.05 1.375.068 1.97.068 1.123 0 1.6-.085 1.973-.323.425-.29.613-.782.613-1.632V37.77c0-1.002.017-1.46.085-1.92-.58.068-1.037.085-1.972.085h-7.09c-.865 0-1.325-.017-1.988-.085.052.595.085 1.36.085 2.567 0 4.403-.17 6.426-.68 7.99-.39 1.275-.867 2.04-1.82 2.992.665.474 1.09.9 1.582 1.562.97-1.088 1.547-2.074 2.006-3.366.204-.612.323-1.054.494-2.023h7.377zm.002-1.734h-7.174c.084-.935.118-1.734.135-2.278h7.038l.002 2.278zm0-4.012h-7.02v-2.125h7.02v2.125zm11.016 2.346h2.31c0-.317.033-.637.095-.96a2.94 2.94 0 0 1 .315-.884c.147-.267.342-.482.586-.646.244-.165.54-.247.892-.247.522 0 .95.16 1.284.484.334.323.502.773.502 1.35a1.9 1.9 0 0 1-.247.97 3.3 3.3 0 0 1-.612.765 5.518 5.518 0 0 1-.808.62c-.294.187-.572.37-.833.552-.51.35-.994.697-1.453 1.037-.46.34-.86.71-1.2 1.113-.34.403-.61.86-.806 1.37-.198.51-.297 1.11-.297 1.8h8.738V47.43h-5.627a5.317 5.317 0 0 1 1.02-1.07c.385-.307.78-.593 1.19-.86a85.26 85.26 0 0 0 1.215-.807 6.517 6.517 0 0 0 1.08-.91 4.04 4.04 0 0 0 .764-1.147c.193-.43.29-.946.29-1.547 0-.58-.11-1.1-.332-1.565a3.45 3.45 0 0 0-.892-1.173 4.015 4.015 0 0 0-1.3-.732 4.745 4.745 0 0 0-1.556-.255c-.715 0-1.346.122-1.896.365a3.694 3.694 0 0 0-1.367 1.02 4.413 4.413 0 0 0-.816 1.53 5.714 5.714 0 0 0-.238 1.896zm15.418-1.513h2.296a4.166 4.166 0 0 0-.425-1.41 3.328 3.328 0 0 0-.835-1.03c-.34-.276-.73-.49-1.173-.636a4.493 4.493 0 0 0-1.428-.22c-.85 0-1.57.186-2.16.56a4.605 4.605 0 0 0-1.444 1.453 6.443 6.443 0 0 0-.815 1.998 9.8 9.8 0 0 0-.255 2.21c0 .76.067 1.504.203 2.236.138.732.38 1.386.733 1.964.35.578.82 1.045 1.41 1.403.59.358 1.332.536 2.228.536.624 0 1.19-.11 1.7-.33.51-.223.95-.528 1.318-.92.368-.39.652-.85.85-1.377a4.816 4.816 0 0 0 .298-1.71c0-.475-.074-.945-.22-1.41-.15-.465-.38-.88-.698-1.24a3.754 3.754 0 0 0-1.242-.893 3.567 3.567 0 0 0-1.495-.332c-.578 0-1.087.103-1.53.307-.442.204-.827.544-1.155 1.02l-.034-.034a7.49 7.49 0 0 1 .137-1.122c.08-.418.203-.812.374-1.18.17-.37.4-.68.69-.935.288-.255.648-.382 1.078-.382.42 0 .77.147 1.055.442.283.295.464.64.543 1.037zm-1.733 2.67c.306 0 .575.065.807.196.232.13.422.3.57.51.147.21.257.446.33.712.075.266.11.54.11.824 0 .272-.038.538-.118.8-.08.26-.198.492-.357.696a1.882 1.882 0 0 1-.57.493c-.22.125-.478.187-.772.187-.307 0-.578-.062-.817-.187a1.832 1.832 0 0 1-.603-.502 2.217 2.217 0 0 1-.374-.713 2.607 2.607 0 0 1-.127-.807c0-.295.04-.575.118-.84.08-.268.2-.503.36-.707.157-.204.36-.365.602-.485a1.89 1.89 0 0 1 .843-.177zm12.85 5.338c.002.8-.032 1.48-.1 2.058h2.022v-1.02h7.906v1.02h2.058a16.785 16.785 0 0 1-.102-2.057V37.687c0-.595.017-1.088.085-1.734-.51.068-1.036.085-1.835.085h-8.228c-.783 0-1.344-.017-1.887-.085.05.56.084 1.156.084 1.82v10.896zm1.923-10.83h7.905v3.946h-7.904V37.84zm0 5.73h7.905v4.353h-7.904V43.57z" fill="#000"/><path d="M25 253.19v49.98h10.29v-33.46h.14l20.79 33.46h10.99v-49.98H56.92v33.53h-.14l-20.86-33.53H25zm60.69 25.2c0-2.193.245-4.317.735-6.37s1.272-3.885 2.345-5.495a11.893 11.893 0 0 1 4.2-3.85c1.727-.957 3.827-1.435 6.3-1.435s4.573.478 6.3 1.435a11.893 11.893 0 0 1 4.2 3.85c1.073 1.61 1.855 3.442 2.345 5.495a27.35 27.35 0 0 1 .735 6.37c0 2.1-.245 4.142-.735 6.125-.49 1.983-1.272 3.768-2.345 5.355-1.073 1.587-2.473 2.858-4.2 3.815-1.727.957-3.827 1.435-6.3 1.435s-4.573-.478-6.3-1.435c-1.727-.957-3.127-2.228-4.2-3.815-1.073-1.587-1.855-3.372-2.345-5.355a25.44 25.44 0 0 1-.735-6.125zm-10.99 0c0 3.64.56 7.035 1.68 10.185 1.12 3.15 2.73 5.892 4.83 8.225 2.1 2.333 4.678 4.165 7.735 5.495 3.057 1.33 6.498 1.995 10.325 1.995 3.873 0 7.327-.665 10.36-1.995 3.033-1.33 5.6-3.162 7.7-5.495 2.1-2.333 3.71-5.075 4.83-8.225 1.12-3.15 1.68-6.545 1.68-10.185 0-3.733-.56-7.198-1.68-10.395-1.12-3.197-2.73-5.985-4.83-8.365s-4.667-4.247-7.7-5.6c-3.033-1.353-6.487-2.03-10.36-2.03-3.827 0-7.268.677-10.325 2.03-3.057 1.353-5.635 3.22-7.735 5.6-2.1 2.38-3.71 5.168-4.83 8.365s-1.68 6.662-1.68 10.395zm67.69-15.96v40.74h10.99v-40.74h14.98v-9.24h-40.95v9.24h14.98zm51.17-9.24v49.98h10.99v-20.65h20.93v-8.54h-20.93v-11.55h24.15v-9.24h-35.14zm50.33 25.2c0-2.193.245-4.317.735-6.37s1.272-3.885 2.345-5.495a11.893 11.893 0 0 1 4.2-3.85c1.727-.957 3.827-1.435 6.3-1.435s4.573.478 6.3 1.435a11.893 11.893 0 0 1 4.2 3.85c1.073 1.61 1.855 3.442 2.345 5.495a27.35 27.35 0 0 1 .735 6.37c0 2.1-.245 4.142-.735 6.125-.49 1.983-1.272 3.768-2.345 5.355-1.073 1.587-2.473 2.858-4.2 3.815-1.727.957-3.827 1.435-6.3 1.435s-4.573-.478-6.3-1.435c-1.727-.957-3.127-2.228-4.2-3.815-1.073-1.587-1.855-3.372-2.345-5.355a25.44 25.44 0 0 1-.735-6.125zm-10.99 0c0 3.64.56 7.035 1.68 10.185 1.12 3.15 2.73 5.892 4.83 8.225 2.1 2.333 4.678 4.165 7.735 5.495 3.057 1.33 6.498 1.995 10.325 1.995 3.873 0 7.327-.665 10.36-1.995 3.033-1.33 5.6-3.162 7.7-5.495 2.1-2.333 3.71-5.075 4.83-8.225 1.12-3.15 1.68-6.545 1.68-10.185 0-3.733-.56-7.198-1.68-10.395-1.12-3.197-2.73-5.985-4.83-8.365s-4.667-4.247-7.7-5.6c-3.033-1.353-6.487-2.03-10.36-2.03-3.827 0-7.268.677-10.325 2.03-3.057 1.353-5.635 3.22-7.735 5.6-2.1 2.38-3.71 5.168-4.83 8.365s-1.68 6.662-1.68 10.395zm99.05 5.88v-31.08h-10.99v31.08c0 3.733-.747 6.475-2.24 8.225-1.493 1.75-4.2 2.625-8.12 2.625-2.24 0-4.025-.315-5.355-.945-1.33-.63-2.368-1.447-3.115-2.45-.747-1.003-1.237-2.158-1.47-3.465a22.69 22.69 0 0 1-.35-3.99v-31.08h-10.99v31.08c0 6.813 1.855 11.853 5.565 15.12 3.71 3.267 8.948 4.9 15.715 4.9 6.673 0 11.9-1.645 15.68-4.935 3.78-3.29 5.67-8.318 5.67-15.085zm9.45-31.08v49.98h10.29v-33.46h.14l20.79 33.46h10.99v-49.98h-10.29v33.53h-.14l-20.86-33.53H341.4zm62.86 40.74v-31.5h7.84c2.707 0 4.982.385 6.825 1.155s3.325 1.878 4.445 3.325c1.12 1.447 1.925 3.185 2.415 5.215s.735 4.305.735 6.825c0 2.753-.35 5.087-1.05 7-.7 1.913-1.633 3.465-2.8 4.655-1.167 1.19-2.497 2.042-3.99 2.555a14.12 14.12 0 0 1-4.62.77h-9.8zm-10.99-40.74v49.98h21.56c3.827 0 7.152-.642 9.975-1.925 2.823-1.283 5.18-3.045 7.07-5.285 1.89-2.24 3.302-4.9 4.235-7.98.933-3.08 1.4-6.44 1.4-10.08 0-4.153-.572-7.77-1.715-10.85-1.143-3.08-2.73-5.647-4.76-7.7s-4.433-3.593-7.21-4.62c-2.777-1.027-5.775-1.54-8.995-1.54h-21.56z" fill="#000"/></g></symbol><symbol id="cancel" viewBox="0 0 200 200"><g fill="none" fill-rule="evenodd"><circle stroke="#000" stroke-width="7" fill="#FFF" cx="100" cy="100" r="85"/><path d="M99.736 95.53L79 74.792A2.974 2.974 0 1 0 74.793 79L95.53 99.737l-20.737 20.736A2.976 2.976 0 0 0 79 124.68l20.738-20.734 20.736 20.735a2.977 2.977 0 0 0 4.208 0 2.98 2.98 0 0 0 0-4.207l-20.737-20.736L124.68 79a2.976 2.976 0 0 0-4.208-4.207L99.736 95.53z" fill="#000"/></g></symbol><symbol id="caret-left" viewBox="0 0 200 200"><path d="M143 15l-85 85 85 85" stroke="#000" stroke-width="7" fill="none" stroke-linecap="round" stroke-linejoin="round"/></symbol><symbol id="caret-right" viewBox="0 0 200 200"><path d="M57 15l85 85-85 85" stroke="#000" stroke-width="7" fill="none" stroke-linecap="round" stroke-linejoin="round"/></symbol><symbol id="fullscreen" viewBox="0 0 200 200"><path d="M63.883 141.16c8.442 10.637 7.714 26.092-2.183 35.9-10.684 10.587-28.004 10.587-38.688 0-10.683-10.587-10.683-27.752 0-38.338 10.163-10.07 26.33-10.562 37.08-1.473l77.45-76.754c-9.92-10.634-9.666-27.227.758-37.557 10.684-10.588 28.004-10.588 38.688 0 10.683 10.586 10.683 27.75 0 38.337-9.63 9.543-24.653 10.484-35.346 2.823l-77.76 77.06z" stroke="#000" stroke-width="5" fill-rule="evenodd"/></symbol><symbol id="link" viewBox="0 0 200 200"><path d="M128.333 71.667C128.333 40.37 102.963 15 71.667 15 40.37 15 15 40.37 15 71.667c0 31.296 25.37 56.666 56.667 56.666 0 31.296 25.37 56.667 56.666 56.667C159.63 185 185 159.63 185 128.333c0-31.296-25.37-56.666-56.667-56.666zm0 0c0 31.296-25.37 56.666-56.666 56.666 0-31.296 25.37-56.666 56.666-56.666z" stroke="#000" stroke-width="10" fill="none"/></symbol><symbol id="ok" viewBox="0 0 200 200"><g fill="none" fill-rule="evenodd"><circle stroke="#000" stroke-width="7" fill="#FFF" cx="99" cy="100" r="85"/><path d="M80.3 131.493l58-58a2.974 2.974 0 0 1 4.208 4.207l-60.104 60.104c-.58.58-1.343.87-2.104.87a2.97 2.97 0 0 1-2.104-.87L56.56 116.166a2.973 2.973 0 0 1 0-4.207 2.97 2.97 0 0 1 4.206 0L80.3 131.49z" fill="#000"/></g></symbol><symbol id="time_machine" viewBox="0 0 200 200"><g transform="translate(15 15)" fill="none" fill-rule="evenodd"><circle stroke="#000" stroke-width="7" cx="85" cy="85" r="85"/><path d="M85.425 101.15c8.685 0 15.725-7.04 15.725-15.725 0-8.685-7.04-15.725-15.725-15.725-8.685 0-15.725 7.04-15.725 15.725 0 8.685 7.04 15.725 15.725 15.725zm47.6 0c8.685 0 15.725-7.04 15.725-15.725 0-8.685-7.04-15.725-15.725-15.725-8.685 0-15.725 7.04-15.725 15.725 0 8.685 7.04 15.725 15.725 15.725zm-95.2 0c8.685 0 15.725-7.04 15.725-15.725 0-8.685-7.04-15.725-15.725-15.725-8.685 0-15.725 7.04-15.725 15.725 0 8.685 7.04 15.725 15.725 15.725zm47.6-47.6c8.685 0 15.725-7.04 15.725-15.725 0-8.685-7.04-15.725-15.725-15.725-8.685 0-15.725 7.04-15.725 15.725 0 8.685 7.04 15.725 15.725 15.725zm0 95.2c8.685 0 15.725-7.04 15.725-15.725 0-8.685-7.04-15.725-15.725-15.725-8.685 0-15.725 7.04-15.725 15.725 0 8.685 7.04 15.725 15.725 15.725z" fill="#000"/></g></symbol></svg>