<svg viewBox="0 0 200 200" xmlns="http://www.w3.org/2000/svg">
  <g fill="none" fill-rule="evenodd">
    <circle stroke="#000" stroke-width="7" fill="#FFF" cx="100" cy="100" r="85"/>
    <path d="M99.736 95.53L79 74.792c-1.162-1.162-3.045-1.162-4.207 0-1.16 1.16-1.162 3.046 0 4.208L95.53 99.737l-20.737 20.736c-1.162 1.163-1.162 3.046 0 4.208 1.16 1.16 3.046 1.16 4.208 0l20.737-20.735 20.736 20.735c1.163 1.162 3.046 1.16 4.208 0 1.16-1.16 1.16-3.046 0-4.208l-20.737-20.736L124.68 79c1.162-1.162 1.16-3.045 0-4.207-1.16-1.16-3.046-1.162-4.208 0L99.736 95.53z" fill="#000"/>
  </g>
</svg>
