<svg viewBox="0 0 200 200" xmlns="http://www.w3.org/2000/svg">
  <g transform="translate(15 15)" fill="none" fill-rule="evenodd">
    <circle stroke="#000" stroke-width="7" cx="85" cy="85" r="85"/>
    <path d="M85.425 101.15c8.685 0 15.725-7.04 15.725-15.725 0-8.685-7.04-15.725-15.725-15.725-8.685 0-15.725 7.04-15.725 15.725 0 8.685 7.04 15.725 15.725 15.725zm47.6 0c8.685 0 15.725-7.04 15.725-15.725 0-8.685-7.04-15.725-15.725-15.725-8.685 0-15.725 7.04-15.725 15.725 0 8.685 7.04 15.725 15.725 15.725zm-95.2 0c8.685 0 15.725-7.04 15.725-15.725 0-8.685-7.04-15.725-15.725-15.725-8.685 0-15.725 7.04-15.725 15.725 0 8.685 7.04 15.725 15.725 15.725zm47.6-47.6c8.685 0 15.725-7.04 15.725-15.725 0-8.685-7.04-15.725-15.725-15.725-8.685 0-15.725 7.04-15.725 15.725 0 8.685 7.04 15.725 15.725 15.725zm0 95.2c8.685 0 15.725-7.04 15.725-15.725 0-8.685-7.04-15.725-15.725-15.725-8.685 0-15.725 7.04-15.725 15.725 0 8.685 7.04 15.725 15.725 15.725z" fill="#000"/>
  </g>
</svg>
